<?xml version="1.0" encoding="utf-8"?>
<!-- Generator: Adobe Illustrator 23.1.1, SVG Export Plug-In . SVG Version: 6.00 Build 0)  -->
<svg version="1.1" id="Calque_1" xmlns="http://www.w3.org/2000/svg" xmlns:xlink="http://www.w3.org/1999/xlink" x="0px" y="0px"
	 viewBox="0 0 24 24" style="enable-background:new 0 0 24 24;" xml:space="preserve">
<style type="text/css">
	.st0{fill:none;stroke:#000000;stroke-miterlimit:10;}
</style>
<g>
	<path id="Vector" class="st0" d="M17.2,19.3C15.9,17.9,14.1,17,12,17c-2.1,0-3.9,0.9-5.2,2.3 M12,21c-5,0-9-4-9-9c0-5,4-9,9-9
		c5,0,9,4,9,9C21,17,17,21,12,21z M12,14c-1.7,0-3-1.3-3-3c0-1.7,1.3-3,3-3s3,1.3,3,3C15,12.7,13.7,14,12,14z"/>
</g>
</svg>
